<svg xmlns="http://www.w3.org/2000/svg"  viewBox="0 0 50 50" width="50px" height="50px"><path d="M 6 4 C 5.4777778 4 4.9453899 4.1913289 4.5683594 4.5683594 C 4.1913289 4.9453899 4 5.4777778 4 6 L 4 44 C 4 44.522222 4.1913289 45.05461 4.5683594 45.431641 C 4.9453899 45.808671 5.4777778 46 6 46 L 44 46 C 44.522222 46 45.05461 45.808671 45.431641 45.431641 C 45.808671 45.05461 46 44.522222 46 44 L 46 6 C 46 5.4777778 45.808671 4.9453899 45.431641 4.5683594 C 45.05461 4.1913289 44.522222 4 44 4 L 6 4 z M 6 6 L 44 6 L 44 44 L 6 44 L 6 6 z M 18.599609 14 C 17.099609 14 16 14.100391 15 14.400391 L 15 36 L 17.5 36 L 17.5 26.900391 L 18.599609 26.900391 C 20.499609 26.900391 22.499219 26.1 23.699219 24.5 C 24.499219 23.4 25 22.099609 25 20.099609 C 25 18.199609 24.400391 16.599609 23.400391 15.599609 C 22.300391 14.499609 20.599609 14 18.599609 14 z M 19 15.699219 C 21.7 15.699219 22.599609 17.700391 22.599609 19.900391 C 22.599609 22.900391 20.999609 24.5 18.599609 24.5 C 18.199609 24.5 17.899609 24.400391 17.599609 24.400391 L 17.599609 15.900391 C 17.899609 15.800391 18.4 15.699219 19 15.699219 z M 31.699219 20 C 29.199219 20 27.300781 21.800781 27.300781 24.300781 C 27.300781 26.000781 28.4 27.399219 30.5 28.699219 C 32.2 29.799219 32.599609 30.600781 32.599609 31.800781 C 32.599609 33.100781 31.599219 34 30.199219 34 C 29.199219 34 28.199609 33.599219 27.599609 33.199219 L 26.900391 35.199219 C 27.600391 35.699219 28.899609 36.099609 30.099609 36.099609 C 32.699609 36.099609 34.900391 34.6 34.900391 31.5 C 34.900391 29.3 33.499609 27.899219 31.599609 26.699219 C 29.999609 25.599219 29.599609 25 29.599609 24 C 29.599609 23 30.299219 22 31.699219 22 C 32.599219 22 33.300391 22.299219 33.900391 22.699219 L 34.599609 20.800781 C 33.899609 20.400781 32.999219 20 31.699219 20 z"/></svg>